<svg xmlns="http://www.w3.org/2000/svg" xmlns:xlink="http://www.w3.org/1999/xlink" viewBox="0 0 281 125.826" width="281" height="125.826" overflow="visible"><g><path d="M 0 0 L 281 0 L 281 125.825 L 0 125.825 Z" fill="transparent"/><path d="M 23.492 8.163 L 23.492 0.605 L 73.402 0.605 L 73.402 8.163 C 68.455 8.163 65.163 8.913 63.529 10.411 C 61.895 11.908 61.079 14.927 61.079 19.467 L 61.079 85.652 C 61.079 95.139 60.113 102.516 58.184 107.781 C 56.255 113.047 52.362 117.371 46.506 120.753 C 40.651 124.135 33.274 125.826 24.376 125.826 C 17.114 125.826 11.236 124.589 6.741 122.114 C 2.247 119.641 0 116.293 0 112.071 C 0 109.075 1.18 106.669 3.54 104.853 C 5.901 103.038 8.693 102.13 11.916 102.13 C 15.048 102.13 17.545 102.879 19.406 104.377 C 21.267 105.875 22.198 107.918 22.198 110.505 C 22.198 111.277 22.016 112.275 21.653 113.501 C 21.426 114.227 21.313 114.772 21.313 115.135 C 21.313 117.223 23.038 118.267 26.488 118.267 C 30.346 118.267 33.058 116.565 34.625 113.16 C 36.191 109.756 36.974 102.674 36.974 91.916 L 36.974 19.466 C 36.974 15.245 36.259 12.306 34.829 10.648 C 33.399 8.992 30.414 8.163 25.875 8.163 Z M 79.258 8.163 L 79.258 0.605 L 128.08 0.605 L 128.08 8.163 L 126.65 8.163 C 122.065 8.163 119.081 9.015 117.696 10.717 C 116.311 12.419 115.619 15.336 115.619 19.467 L 115.619 74.076 C 115.619 78.298 116.334 81.237 117.764 82.894 C 119.194 84.551 122.156 85.379 126.65 85.379 L 128.08 85.379 L 128.08 92.937 L 79.258 92.937 L 79.258 85.38 C 84.161 85.38 87.418 84.631 89.03 83.133 C 90.641 81.635 91.447 78.616 91.447 74.077 L 91.447 19.467 C 91.447 15.064 90.687 12.08 89.166 10.513 C 87.645 8.947 84.343 8.164 79.258 8.164 Z M 254.497 71.525 C 254.127 74.372 253.469 76.772 252.439 78.686 L 279.436 78.686 C 280.463 76.579 280.71 74.036 281 71.526 L 254.497 71.526 Z M 253.591 57.286 C 254.275 59.27 254.683 61.654 254.826 64.447 L 280.835 64.447 C 280.373 61.827 279.508 59.438 278.201 57.287 L 253.591 57.287 Z M 171.942 48.232 L 176.387 48.232 C 181.199 48.232 184.8 48.678 187.252 49.632 C 189.703 50.585 191.606 52.4 193.013 55.146 C 194.42 57.893 195.153 61.73 195.153 66.587 C 195.153 72.67 194.1 77.209 191.943 80.25 C 189.787 83.291 186.543 84.86 182.231 84.86 C 179.462 84.86 177.332 84.428 175.811 83.542 C 174.29 82.657 173.205 81.484 172.683 80.168 C 172.161 78.851 171.942 76.948 171.942 74.406 Z M 250.875 28.562 C 250.422 31.555 249.502 34.003 248.077 35.639 L 271.37 35.639 C 271.464 35.555 271.608 35.479 271.699 35.392 C 273.838 33.393 275.28 31.054 276.226 28.562 Z M 249.147 14.24 C 250.243 16.099 250.849 18.573 251.122 21.4 L 277.296 21.4 C 277.196 18.782 276.548 16.42 275.568 14.24 Z M 171.942 8.066 C 176.845 8.066 180.534 8.493 183.054 9.219 C 185.573 9.945 187.601 11.496 189.145 13.993 C 190.688 16.489 191.449 19.886 191.449 24.199 C 191.449 29.964 190.279 34.042 187.828 36.38 C 185.377 38.718 181.627 39.92 176.634 39.92 L 171.942 39.92 Z M 231.039 0 L 188.157 0.988 C 184.319 0.64 180.952 0.083 176.222 0.083 L 171.202 0.083 L 135.727 1.07 L 135.727 8.643 C 140.766 8.643 144.024 9.441 145.522 11.029 C 147.02 12.619 147.744 15.561 147.744 19.919 L 147.744 74.077 C 147.744 78.571 146.946 81.61 145.357 83.131 C 143.768 84.651 140.584 85.353 135.727 85.353 L 135.727 92.926 L 243.962 92.926 C 257.444 92.926 267.123 90.736 272.934 86.423 C 273.187 86.235 273.268 85.958 273.51 85.765 L 213.755 85.765 C 216.268 83.732 218.287 81.376 219.598 78.686 L 232.356 78.686 C 232.069 77.475 231.78 76.293 231.78 74.406 L 231.78 71.526 L 221.162 71.526 C 221.275 70.545 221.738 69.769 221.738 68.727 C 221.738 67.152 221.25 65.881 220.998 64.447 L 231.78 64.447 L 231.78 57.287 L 218.364 57.287 C 217.357 55.627 216.498 53.893 214.989 52.512 C 213.854 51.474 212.128 50.76 210.709 49.879 L 270.629 49.879 C 266.369 47.226 261.24 45.017 254.414 43.788 C 249.147 42.766 240.093 42.8 240.093 42.8 L 197.458 42.8 C 203.392 40.923 208.182 38.576 211.45 35.64 L 231.78 35.64 L 231.78 28.56 L 216.306 28.56 C 217.058 26.58 217.623 24.513 217.623 22.222 C 217.623 21.917 217.47 21.699 217.459 21.399 L 231.78 21.399 L 231.78 14.239 L 215.648 14.239 C 214.426 11.549 212.534 9.183 209.968 7.16 L 269.806 7.16 C 269.369 6.816 269.211 6.333 268.736 6.008 C 262.926 2.037 252.039 0 236.06 0 Z M 68.919 110.161 L 74.432 118.047 L 75.347 118.047 L 75.347 111.138 C 75.347 110.346 75.421 109.852 75.606 109.555 C 75.804 109.234 76.063 109.11 76.656 109.086 L 76.656 108.752 L 73.53 108.752 L 73.53 109.086 C 74.16 109.123 74.42 109.234 74.606 109.555 C 74.779 109.84 74.841 110.297 74.841 111.224 L 74.841 115.872 L 69.797 108.752 L 67.214 108.752 L 67.214 109.073 C 68.203 109.148 68.414 109.407 68.414 110.618 L 68.414 115.526 C 68.414 117.207 68.154 117.615 67.103 117.664 L 67.103 117.998 L 70.205 117.998 L 70.205 117.664 C 69.142 117.602 68.92 117.256 68.92 115.624 L 68.92 110.161 Z M 79.932 113.746 L 79.932 109.11 L 80.723 109.11 C 82.157 109.11 82.886 109.877 82.886 111.397 C 82.886 112.201 82.676 112.856 82.28 113.239 C 81.922 113.573 81.341 113.746 80.575 113.746 Z M 79.932 114.104 L 80.538 114.104 C 81.576 114.104 82.478 113.981 83.022 113.783 C 84.085 113.387 84.604 112.584 84.604 111.323 C 84.604 109.531 83.504 108.752 80.983 108.752 L 77.262 108.752 L 77.262 109.073 C 78.226 109.123 78.325 109.234 78.325 110.359 L 78.325 116.403 C 78.325 117.528 78.226 117.639 77.212 117.676 L 77.212 117.998 L 81.118 117.998 L 81.118 117.676 C 80.043 117.639 79.932 117.528 79.932 116.403 Z M 87.41 113.374 C 87.41 111.953 87.608 110.902 88.041 110.062 C 88.436 109.295 89.091 108.9 89.969 108.9 C 90.847 108.9 91.477 109.283 91.885 110.062 C 92.318 110.902 92.515 111.928 92.515 113.374 C 92.515 114.833 92.318 115.859 91.885 116.699 C 91.49 117.466 90.835 117.861 89.969 117.861 C 89.092 117.861 88.437 117.466 88.041 116.699 C 87.608 115.846 87.411 114.82 87.411 113.374 Z M 85.606 113.374 C 85.606 114.672 85.989 115.896 86.656 116.736 C 87.386 117.663 88.597 118.195 89.969 118.195 C 91.341 118.195 92.528 117.663 93.269 116.736 C 93.949 115.896 94.32 114.685 94.32 113.374 C 94.32 112.076 93.95 110.865 93.27 110.025 C 92.528 109.085 91.341 108.566 89.97 108.566 C 88.585 108.566 87.374 109.097 86.657 110.025 C 85.977 110.89 85.606 112.076 85.606 113.374 Z M 101.094 108.752 L 101.094 109.073 C 102.157 109.11 102.268 109.234 102.268 110.359 L 102.268 115.921 C 102.268 117.368 102.095 117.862 101.588 117.862 C 101.218 117.862 100.995 117.553 100.97 117.009 C 100.954 116.721 100.925 116.539 100.884 116.465 C 100.797 116.304 100.562 116.205 100.278 116.205 C 99.685 116.205 99.265 116.527 99.265 116.972 C 99.265 117.689 100.13 118.196 101.366 118.196 C 102.219 118.196 102.911 117.936 103.356 117.466 C 103.727 117.058 103.912 116.502 103.912 115.736 C 103.912 115.624 103.912 115.489 103.9 115.315 C 103.888 114.858 103.888 114.574 103.888 114.314 L 103.888 110.359 C 103.888 109.234 103.986 109.11 105.012 109.073 L 105.012 108.752 Z M 109.845 115.377 C 109.845 116.082 109.784 116.49 109.623 116.811 C 109.388 117.318 108.918 117.627 108.424 117.627 C 107.818 117.627 107.423 117.046 107.423 116.168 C 107.423 115.019 108.053 114.561 109.845 114.425 Z M 112.144 117.664 C 111.353 117.652 111.304 117.577 111.304 116.218 C 111.304 116.131 111.304 115.896 111.316 115.55 L 111.329 114.475 L 111.341 113.4 C 111.341 112.633 111.193 112.188 110.859 111.867 C 110.488 111.521 109.882 111.36 109.03 111.36 C 108.189 111.36 107.522 111.508 107.002 111.83 C 106.52 112.126 106.236 112.547 106.236 112.979 C 106.236 113.35 106.533 113.548 107.101 113.548 C 107.621 113.548 107.83 113.387 107.855 112.942 C 107.892 112.472 107.929 112.275 108.053 112.064 C 108.226 111.768 108.486 111.644 108.881 111.644 C 109.623 111.644 109.845 112.028 109.845 113.338 L 109.845 114.141 C 109.079 114.178 108.424 114.265 107.818 114.376 C 106.496 114.636 105.841 115.291 105.841 116.354 C 105.841 117.466 106.57 118.171 107.744 118.171 C 108.547 118.171 109.215 117.862 109.858 117.17 C 109.92 117.923 110.043 118.109 110.439 118.109 C 110.76 118.109 111.415 118.047 112.144 117.96 Z M 115.061 114.932 C 115.061 112.954 115.679 111.755 116.693 111.755 C 117.571 111.755 118.04 112.794 118.04 114.771 C 118.04 116.811 117.546 117.825 116.545 117.825 C 116.075 117.825 115.63 117.503 115.407 117.033 C 115.172 116.514 115.061 115.847 115.061 114.932 Z M 115.086 111.385 L 112.676 111.545 L 112.676 111.842 C 113.504 111.854 113.615 111.99 113.615 113.041 L 113.615 119.221 C 113.615 120.321 113.541 120.433 112.676 120.457 L 112.676 120.754 L 116.124 120.754 L 116.124 120.457 C 115.185 120.42 115.111 120.321 115.111 119.221 L 115.111 117.503 C 115.679 117.998 116.124 118.171 116.829 118.171 C 117.669 118.171 118.448 117.837 118.918 117.256 C 119.4 116.663 119.684 115.699 119.684 114.598 C 119.684 112.534 118.745 111.36 117.088 111.36 C 116.248 111.36 115.655 111.644 115.086 112.336 Z M 124.777 115.377 C 124.777 116.082 124.715 116.49 124.554 116.811 C 124.32 117.318 123.85 117.627 123.355 117.627 C 122.75 117.627 122.354 117.046 122.354 116.168 C 122.354 115.019 122.984 114.561 124.777 114.425 Z M 127.076 117.664 C 126.285 117.652 126.235 117.577 126.235 116.218 C 126.235 116.131 126.235 115.896 126.248 115.55 L 126.26 114.475 L 126.273 113.4 C 126.273 112.633 126.124 112.188 125.791 111.867 C 125.42 111.521 124.814 111.36 123.961 111.36 C 123.121 111.36 122.453 111.508 121.934 111.83 C 121.452 112.126 121.168 112.547 121.168 112.979 C 121.168 113.35 121.464 113.548 122.033 113.548 C 122.552 113.548 122.762 113.387 122.787 112.942 C 122.824 112.472 122.861 112.275 122.984 112.064 C 123.157 111.768 123.417 111.644 123.813 111.644 C 124.554 111.644 124.777 112.028 124.777 113.338 L 124.777 114.141 C 124.097 114.173 123.42 114.252 122.75 114.376 C 121.427 114.636 120.772 115.291 120.772 116.354 C 120.772 117.466 121.501 118.171 122.675 118.171 C 123.479 118.171 124.147 117.862 124.789 117.17 C 124.851 117.923 124.975 118.109 125.37 118.109 C 125.692 118.109 126.347 118.047 127.076 117.96 Z M 130.203 111.385 L 127.792 111.545 L 127.792 111.842 C 128.608 111.854 128.707 111.99 128.707 113.041 L 128.707 116.465 C 128.707 117.565 128.621 117.689 127.768 117.701 L 127.768 117.998 L 131.142 117.998 L 131.142 117.701 C 130.302 117.689 130.215 117.577 130.215 116.465 L 130.215 113.993 C 130.215 113.585 130.351 113.078 130.549 112.72 C 130.858 112.188 131.303 111.904 131.822 111.904 C 132.589 111.904 132.91 112.46 132.91 113.795 L 132.91 116.465 C 132.91 117.553 132.811 117.689 131.983 117.701 L 131.983 117.998 L 135.345 117.998 L 135.345 117.701 C 134.492 117.689 134.405 117.565 134.405 116.465 L 134.405 113.721 C 134.405 112.979 134.319 112.571 134.096 112.201 C 133.775 111.632 133.219 111.36 132.416 111.36 C 131.426 111.36 130.747 111.743 130.215 112.608 Z M 140.166 117.998 L 144.122 117.998 L 144.122 117.676 C 143.059 117.639 142.947 117.528 142.947 116.391 L 142.947 110.359 C 142.947 109.234 143.046 109.11 144.072 109.073 L 144.072 108.752 L 140.216 108.752 L 140.216 109.073 C 141.241 109.11 141.34 109.234 141.34 110.359 L 141.34 116.391 C 141.34 117.528 141.241 117.639 140.166 117.676 Z M 147.322 111.385 L 144.912 111.545 L 144.912 111.842 C 145.728 111.854 145.827 111.99 145.827 113.041 L 145.827 116.465 C 145.827 117.565 145.74 117.689 144.887 117.701 L 144.887 117.998 L 148.262 117.998 L 148.262 117.701 C 147.421 117.689 147.335 117.577 147.335 116.465 L 147.335 113.993 C 147.335 113.585 147.471 113.078 147.669 112.72 C 147.977 112.188 148.423 111.904 148.942 111.904 C 149.708 111.904 150.03 112.46 150.03 113.795 L 150.03 116.465 C 150.03 117.553 149.93 117.689 149.102 117.701 L 149.102 117.998 L 152.464 117.998 L 152.464 117.701 C 151.612 117.689 151.525 117.565 151.525 116.465 L 151.525 113.721 C 151.525 112.979 151.439 112.571 151.216 112.201 C 150.895 111.632 150.338 111.36 149.535 111.36 C 148.546 111.36 147.866 111.743 147.335 112.608 Z M 157.928 114.673 C 157.928 116.638 157.36 117.8 156.408 117.8 C 156.062 117.8 155.753 117.639 155.555 117.355 C 155.184 116.836 154.987 115.896 154.987 114.734 C 154.987 112.794 155.518 111.693 156.458 111.693 C 157.409 111.693 157.928 112.756 157.928 114.673 Z M 156.952 108.752 L 156.952 109.036 C 157.817 109.048 157.891 109.135 157.891 110.284 L 157.891 112.064 C 157.409 111.582 156.865 111.36 156.186 111.36 C 154.455 111.36 153.343 112.756 153.343 114.944 C 153.343 116.007 153.627 116.873 154.159 117.441 C 154.616 117.911 155.258 118.183 155.963 118.183 C 156.779 118.183 157.384 117.886 157.99 117.207 L 158.04 118.109 L 160.215 117.997 L 160.215 117.713 C 159.807 117.701 159.745 117.689 159.634 117.614 C 159.449 117.466 159.399 117.132 159.399 116.131 L 159.399 111.137 C 159.399 110.186 159.424 109.543 159.474 108.616 Z M 161.661 109.431 C 161.661 109.926 162.057 110.321 162.551 110.321 C 163.046 110.321 163.441 109.926 163.441 109.431 C 163.442 109.195 163.349 108.968 163.181 108.801 C 163.014 108.634 162.787 108.541 162.551 108.542 C 162.315 108.541 162.088 108.634 161.921 108.801 C 161.754 108.968 161.66 109.195 161.661 109.431 Z M 160.858 111.545 L 160.858 111.842 C 161.723 111.854 161.785 111.941 161.785 113.041 L 161.785 116.465 C 161.785 117.565 161.698 117.689 160.821 117.701 L 160.821 117.997 L 164.257 117.997 L 164.257 117.701 C 163.379 117.689 163.293 117.565 163.293 116.465 L 163.293 113.783 C 163.293 112.991 163.317 112.126 163.367 111.384 Z M 169.053 115.377 C 169.053 116.082 168.991 116.49 168.831 116.811 C 168.596 117.318 168.126 117.627 167.632 117.627 C 167.026 117.627 166.631 117.046 166.631 116.168 C 166.631 115.019 167.261 114.561 169.053 114.425 Z M 171.352 117.664 C 170.561 117.652 170.512 117.577 170.512 116.218 C 170.512 116.131 170.512 115.896 170.524 115.55 L 170.537 114.475 L 170.549 113.4 C 170.549 112.633 170.401 112.188 170.067 111.867 C 169.696 111.521 169.09 111.36 168.237 111.36 C 167.397 111.36 166.73 111.508 166.21 111.83 C 165.728 112.126 165.444 112.547 165.444 112.979 C 165.444 113.35 165.741 113.548 166.309 113.548 C 166.828 113.548 167.038 113.387 167.063 112.942 C 167.1 112.472 167.138 112.275 167.261 112.064 C 167.434 111.768 167.694 111.644 168.089 111.644 C 168.831 111.644 169.053 112.028 169.053 113.338 L 169.053 114.141 C 168.287 114.178 167.632 114.265 167.026 114.376 C 165.704 114.636 165.048 115.291 165.048 116.354 C 165.048 117.466 165.778 118.171 166.952 118.171 C 167.755 118.171 168.423 117.862 169.066 117.17 C 169.128 117.923 169.251 118.109 169.647 118.109 C 169.968 118.109 170.623 118.047 171.352 117.96 Z M 178.892 117.639 L 178.892 113.264 L 179.893 113.264 C 180.499 113.264 181.031 113.387 181.352 113.597 C 181.871 113.944 182.155 114.599 182.155 115.427 C 182.155 116.898 181.377 117.639 179.831 117.639 Z M 178.892 112.868 L 178.892 109.11 L 179.844 109.11 C 181.204 109.11 181.896 109.716 181.896 110.928 C 181.896 112.201 181.216 112.868 179.93 112.868 Z M 176.185 117.998 L 179.844 117.998 C 182.749 117.998 183.923 117.268 183.923 115.489 C 183.923 113.993 182.922 113.189 180.944 113.091 L 180.944 113.004 C 182.835 112.794 183.601 112.164 183.601 110.853 C 183.601 109.407 182.501 108.752 180.054 108.752 L 176.185 108.752 L 176.185 109.073 C 177.174 109.086 177.298 109.222 177.298 110.359 L 177.298 116.391 C 177.298 117.528 177.186 117.652 176.185 117.676 Z M 191.97 117.998 L 191.97 117.713 C 191.29 117.701 191.167 117.503 191.167 116.428 L 191.167 113.857 C 191.167 113.338 191.191 112.514 191.241 111.385 L 188.756 111.545 L 188.756 111.842 C 189.275 111.854 189.349 111.879 189.473 111.978 C 189.609 112.114 189.658 112.361 189.658 113.041 L 189.658 114.994 C 189.658 115.661 189.597 116.057 189.424 116.465 C 189.127 117.132 188.657 117.503 188.089 117.503 C 187.656 117.503 187.359 117.305 187.223 116.897 C 187.1 116.539 187.063 116.23 187.063 115.39 L 187.063 115.155 L 187.075 113.844 C 187.088 112.744 187.112 112.274 187.174 111.385 L 184.689 111.545 L 184.689 111.842 C 185.246 111.854 185.344 111.891 185.456 112.04 C 185.555 112.176 185.592 112.448 185.592 112.942 C 185.592 112.979 185.579 113.004 185.579 113.041 L 185.555 115.538 L 185.555 115.711 C 185.555 116.465 185.629 116.897 185.79 117.243 C 186.074 117.837 186.655 118.171 187.384 118.171 C 188.299 118.171 189.139 117.664 189.658 116.811 C 189.658 117.318 189.683 117.787 189.72 118.109 Z M 192.897 118.084 C 193.305 118.01 193.343 118.01 193.528 118.01 C 193.676 118.01 193.825 118.022 193.973 118.047 C 194.702 118.171 194.875 118.195 195.234 118.195 C 196.63 118.195 197.459 117.417 197.459 116.131 C 197.459 115.204 197.051 114.722 195.79 114.141 C 195.048 113.803 194.587 113.564 194.406 113.424 C 194.133 113.214 194.022 112.992 194.022 112.67 C 194.022 112.052 194.455 111.644 195.123 111.644 C 196.012 111.644 196.532 112.312 196.618 113.573 L 197.075 113.573 L 197.187 111.409 C 196.902 111.508 196.766 111.533 196.593 111.533 C 196.457 111.533 196.395 111.521 196.049 111.459 C 195.76 111.404 195.466 111.371 195.172 111.36 C 193.775 111.36 192.885 112.126 192.885 113.325 C 192.885 113.77 193.021 114.129 193.318 114.438 C 193.614 114.759 193.923 114.957 194.653 115.278 C 196.086 115.946 196.408 116.218 196.408 116.823 C 196.408 117.503 195.951 117.899 195.197 117.899 C 194.591 117.899 194.158 117.652 193.812 117.12 C 193.614 116.799 193.516 116.465 193.441 115.822 L 192.996 115.822 Z M 199.312 109.431 C 199.312 109.926 199.708 110.321 200.202 110.321 C 200.697 110.321 201.092 109.926 201.092 109.431 C 201.093 109.195 201 108.968 200.832 108.801 C 200.665 108.634 200.438 108.541 200.202 108.542 C 199.966 108.541 199.739 108.634 199.572 108.801 C 199.405 108.968 199.311 109.195 199.312 109.431 Z M 198.509 111.545 L 198.509 111.842 C 199.374 111.854 199.436 111.941 199.436 113.041 L 199.436 116.465 C 199.436 117.565 199.349 117.689 198.472 117.701 L 198.472 117.997 L 201.908 117.997 L 201.908 117.701 C 201.03 117.689 200.944 117.565 200.944 116.465 L 200.944 113.783 C 200.944 112.991 200.969 112.126 201.018 111.384 Z M 205.023 111.385 L 202.613 111.545 L 202.613 111.842 C 203.429 111.854 203.527 111.99 203.527 113.041 L 203.527 116.465 C 203.527 117.565 203.441 117.689 202.588 117.701 L 202.588 117.998 L 205.963 117.998 L 205.963 117.701 C 205.122 117.689 205.035 117.577 205.035 116.465 L 205.035 113.993 C 205.035 113.585 205.171 113.078 205.369 112.72 C 205.678 112.188 206.123 111.904 206.642 111.904 C 207.409 111.904 207.73 112.46 207.73 113.795 L 207.73 116.465 C 207.73 117.553 207.631 117.689 206.803 117.701 L 206.803 117.998 L 210.165 117.998 L 210.165 117.701 C 209.312 117.689 209.226 117.565 209.226 116.465 L 209.226 113.721 C 209.226 112.979 209.139 112.571 208.917 112.201 C 208.595 111.632 208.039 111.36 207.236 111.36 C 206.247 111.36 205.567 111.743 205.035 112.608 Z M 212.588 114.154 C 212.637 113.511 212.711 113.115 212.847 112.732 C 213.107 112.015 213.514 111.644 214.046 111.644 C 214.528 111.644 214.874 111.953 215.109 112.608 C 215.245 112.992 215.294 113.375 215.319 114.154 Z M 216.864 114.512 C 216.84 113.733 216.778 113.362 216.642 112.992 C 216.234 111.929 215.344 111.36 214.083 111.36 C 212.204 111.36 210.981 112.72 210.981 114.796 C 210.981 116.86 212.242 118.183 214.207 118.183 C 215.48 118.183 216.308 117.664 216.926 116.49 L 216.617 116.292 C 216.16 117.194 215.431 117.701 214.577 117.701 C 213.824 117.701 213.255 117.293 212.897 116.477 C 212.674 115.958 212.588 115.427 212.575 114.512 Z M 217.99 118.084 C 218.398 118.01 218.435 118.01 218.62 118.01 C 218.769 118.01 218.917 118.022 219.065 118.047 C 219.795 118.171 219.968 118.195 220.326 118.195 C 221.723 118.195 222.551 117.417 222.551 116.131 C 222.551 115.204 222.143 114.722 220.882 114.141 C 220.141 113.803 219.679 113.564 219.498 113.424 C 219.226 113.214 219.115 112.992 219.115 112.67 C 219.115 112.052 219.548 111.644 220.215 111.644 C 221.105 111.644 221.624 112.312 221.71 113.573 L 222.168 113.573 L 222.279 111.409 C 221.995 111.508 221.859 111.533 221.686 111.533 C 221.55 111.533 221.488 111.521 221.142 111.459 C 220.852 111.404 220.559 111.371 220.264 111.36 C 218.867 111.36 217.978 112.126 217.978 113.325 C 217.978 113.77 218.114 114.129 218.41 114.438 C 218.707 114.759 219.016 114.957 219.745 115.278 C 221.179 115.946 221.501 116.218 221.501 116.823 C 221.501 117.503 221.043 117.899 220.289 117.899 C 219.683 117.899 219.251 117.652 218.905 117.12 C 218.707 116.799 218.608 116.465 218.534 115.822 L 218.089 115.822 Z M 223.849 118.084 C 224.257 118.01 224.294 118.01 224.479 118.01 C 224.628 118.01 224.776 118.022 224.924 118.047 C 225.653 118.171 225.827 118.195 226.185 118.195 C 227.582 118.195 228.41 117.417 228.41 116.131 C 228.41 115.204 228.002 114.722 226.741 114.141 C 226 113.803 225.538 113.564 225.357 113.424 C 225.085 113.214 224.974 112.992 224.974 112.67 C 224.974 112.052 225.406 111.644 226.074 111.644 C 226.964 111.644 227.483 112.312 227.57 113.573 L 228.027 113.573 L 228.138 111.409 C 227.854 111.508 227.718 111.533 227.545 111.533 C 227.409 111.533 227.347 111.521 227.001 111.459 C 226.711 111.404 226.418 111.371 226.123 111.36 C 224.727 111.36 223.837 112.126 223.837 113.325 C 223.837 113.77 223.973 114.129 224.269 114.438 C 224.566 114.759 224.875 114.957 225.604 115.278 C 227.038 115.946 227.359 116.218 227.359 116.823 C 227.359 117.503 226.902 117.899 226.148 117.899 C 225.542 117.899 225.11 117.652 224.764 117.12 C 224.566 116.799 224.467 116.465 224.393 115.822 L 223.948 115.822 Z M 236.271 117.639 L 236.271 113.264 L 237.272 113.264 C 237.878 113.264 238.41 113.387 238.731 113.597 C 239.25 113.944 239.534 114.599 239.534 115.427 C 239.534 116.898 238.756 117.639 237.21 117.639 Z M 236.271 112.868 L 236.271 109.11 L 237.223 109.11 C 238.583 109.11 239.275 109.716 239.275 110.928 C 239.275 112.201 238.595 112.868 237.31 112.868 Z M 233.564 117.998 L 237.223 117.998 C 240.128 117.998 241.302 117.268 241.302 115.489 C 241.302 113.993 240.301 113.189 238.323 113.091 L 238.323 113.004 C 240.214 112.794 240.981 112.164 240.981 110.853 C 240.981 109.407 239.88 108.752 237.433 108.752 L 233.564 108.752 L 233.564 109.073 C 234.553 109.086 234.677 109.222 234.677 110.359 L 234.677 116.391 C 234.677 117.528 234.565 117.652 233.564 117.676 Z M 249.349 117.998 L 249.349 117.713 C 248.669 117.701 248.545 117.503 248.545 116.428 L 248.545 113.857 C 248.545 113.338 248.57 112.514 248.62 111.385 L 246.135 111.545 L 246.135 111.842 C 246.654 111.854 246.728 111.879 246.852 111.978 C 246.988 112.114 247.037 112.361 247.037 113.041 L 247.037 114.994 C 247.037 115.661 246.976 116.057 246.803 116.465 C 246.506 117.132 246.036 117.503 245.468 117.503 C 245.035 117.503 244.738 117.305 244.602 116.897 C 244.479 116.539 244.442 116.23 244.442 115.39 L 244.442 115.155 L 244.454 113.844 C 244.466 112.744 244.491 112.274 244.553 111.385 L 242.068 111.545 L 242.068 111.842 C 242.625 111.854 242.724 111.891 242.835 112.04 C 242.934 112.176 242.971 112.448 242.971 112.942 C 242.971 112.979 242.958 113.004 242.958 113.041 L 242.934 115.538 L 242.934 115.711 C 242.934 116.465 243.008 116.897 243.169 117.243 C 243.453 117.837 244.034 118.171 244.763 118.171 C 245.678 118.171 246.518 117.664 247.037 116.811 C 247.037 117.318 247.062 117.787 247.099 118.109 Z M 250.029 111.545 L 250.029 111.842 C 250.808 111.842 250.919 111.99 250.919 113.041 L 250.919 116.465 C 250.919 117.565 250.832 117.689 249.979 117.701 L 249.979 117.998 L 253.416 117.998 L 253.416 117.701 C 252.501 117.664 252.427 117.577 252.427 116.465 L 252.427 114.178 C 252.427 113.597 252.526 113.177 252.723 112.806 C 252.934 112.448 253.181 112.237 253.416 112.225 L 253.44 112.225 C 253.638 112.225 253.7 112.312 253.799 112.658 C 253.885 112.942 254.046 113.053 254.38 113.053 C 254.899 113.053 255.27 112.744 255.27 112.299 C 255.27 111.768 254.825 111.36 254.219 111.36 C 253.515 111.36 252.884 111.842 252.39 112.757 L 252.39 112.386 C 252.39 112.139 252.377 111.854 252.353 111.385 Z M 257.42 114.154 C 257.469 113.511 257.543 113.115 257.68 112.732 C 257.939 112.015 258.347 111.644 258.878 111.644 C 259.36 111.644 259.707 111.953 259.941 112.608 C 260.077 112.992 260.127 113.375 260.152 114.154 Z M 261.697 114.512 C 261.672 113.733 261.61 113.362 261.474 112.992 C 261.066 111.929 260.176 111.36 258.916 111.36 C 257.037 111.36 255.813 112.72 255.813 114.796 C 255.813 116.86 257.074 118.183 259.039 118.183 C 260.312 118.183 261.14 117.664 261.759 116.49 L 261.449 116.292 C 260.992 117.194 260.263 117.701 259.41 117.701 C 258.656 117.701 258.087 117.293 257.729 116.477 C 257.506 115.958 257.42 115.427 257.407 114.512 Z M 266.654 115.377 C 266.654 116.082 266.592 116.49 266.431 116.811 C 266.197 117.318 265.727 117.627 265.232 117.627 C 264.627 117.627 264.231 117.046 264.231 116.168 C 264.231 115.019 264.862 114.561 266.654 114.425 Z M 268.953 117.664 C 268.162 117.652 268.113 117.577 268.113 116.218 C 268.113 116.131 268.113 115.896 268.125 115.55 L 268.137 114.475 L 268.15 113.4 C 268.15 112.633 268.001 112.188 267.668 111.867 C 267.297 111.521 266.691 111.36 265.838 111.36 C 264.998 111.36 264.33 111.508 263.811 111.83 C 263.329 112.126 263.045 112.547 263.045 112.979 C 263.045 113.35 263.341 113.548 263.91 113.548 C 264.429 113.548 264.639 113.387 264.664 112.942 C 264.701 112.472 264.738 112.275 264.862 112.064 C 265.035 111.768 265.294 111.644 265.69 111.644 C 266.431 111.644 266.654 112.028 266.654 113.338 L 266.654 114.141 C 265.974 114.173 265.297 114.252 264.627 114.376 C 263.304 114.636 262.649 115.291 262.649 116.354 C 262.649 117.466 263.379 118.171 264.553 118.171 C 265.356 118.171 266.024 117.862 266.666 117.17 C 266.728 117.923 266.852 118.109 267.247 118.109 C 267.569 118.109 268.224 118.047 268.953 117.96 Z M 276.752 117.998 L 276.752 117.713 C 276.072 117.701 275.949 117.503 275.949 116.428 L 275.949 113.857 C 275.949 113.338 275.974 112.514 276.023 111.385 L 273.539 111.545 L 273.539 111.842 C 274.058 111.854 274.132 111.879 274.255 111.978 C 274.391 112.114 274.441 112.361 274.441 113.041 L 274.441 114.994 C 274.441 115.661 274.379 116.057 274.206 116.465 C 273.909 117.132 273.44 117.503 272.871 117.503 C 272.438 117.503 272.142 117.305 272.006 116.897 C 271.882 116.539 271.845 116.23 271.845 115.39 L 271.845 115.155 L 271.857 113.844 C 271.87 112.744 271.895 112.274 271.956 111.385 L 269.472 111.545 L 269.472 111.842 C 270.028 111.854 270.127 111.891 270.238 112.04 C 270.337 112.176 270.374 112.448 270.374 112.942 C 270.374 112.979 270.362 113.004 270.362 113.041 L 270.337 115.538 L 270.337 115.711 C 270.337 116.465 270.411 116.897 270.572 117.243 C 270.856 117.837 271.437 118.171 272.166 118.171 C 273.081 118.171 273.922 117.664 274.441 116.811 C 274.441 117.318 274.465 117.787 274.503 118.109 Z" fill="#01109f"/></g></svg>